HIERARCHY
ROOT Character1_Hips
{
  OFFSET 0.175268 14.2608 0.0539357
  CHANNELS 6 Xposition Yposition Zposition Zrotation Xrotation Yrotation
  JOINT Character1_LeftUpLeg
  {
    OFFSET 1.33984 -0.942851 0
    CHANNELS 6 Xposition Yposition Zposition Zrotation Xrotation Yrotation
    JOINT Character1_LeftLeg
    {
      OFFSET 1.03111 -5.48941 0.514162
      CHANNELS 6 Xposition Yposition Zposition Zrotation Xrotation Yrotation
      JOINT Character1_LeftFoot
      {
        OFFSET 0.584472 -7.37543 -1.61388
        CHANNELS 6 Xposition Yposition Zposition Zrotation Xrotation Yrotation
        JOINT Character1_LeftToeBase
        {
          OFFSET 0.308451 -0.815752 3.43202
          CHANNELS 6 Xposition Yposition Zposition Zrotation Xrotation Yrotation
          End Site
          {
            OFFSET 0 0 0
          }
        }
      }
    }
  }
  JOINT Character1_RightUpLeg
  {
    OFFSET -1.33984 -0.942851 0
    CHANNELS 6 Xposition Yposition Zposition Zrotation Xrotation Yrotation
    JOINT Character1_RightLeg
    {
      OFFSET -1.03111 -5.48941 0.514162
      CHANNELS 6 Xposition Yposition Zposition Zrotation Xrotation Yrotation
      JOINT Character1_RightFoot
      {
        OFFSET -0.584472 -7.37543 -1.61389
        CHANNELS 6 Xposition Yposition Zposition Zrotation Xrotation Yrotation
        JOINT Character1_RightToeBase
        {
          OFFSET -0.308452 -0.815752 3.43202
          CHANNELS 6 Xposition Yposition Zposition Zrotation Xrotation Yrotation
          End Site
          {
            OFFSET 0 0 0
          }
        }
      }
    }
  }
  JOINT Character1_Spine
  {
    OFFSET 0 1.05262 0
    CHANNELS 6 Xposition Yposition Zposition Zrotation Xrotation Yrotation
    JOINT Character1_Spine1
    {
      OFFSET 0 2.01813 0
      CHANNELS 6 Xposition Yposition Zposition Zrotation Xrotation Yrotation
      JOINT Character1_Spine2
      {
        OFFSET 0 2.01813 0
        CHANNELS 6 Xposition Yposition Zposition Zrotation Xrotation Yrotation
        JOINT Character1_LeftShoulder
        {
          OFFSET 1.05263 2.25701 0
          CHANNELS 6 Xposition Yposition Zposition Zrotation Xrotation Yrotation
          JOINT Character1_LeftArm
          {
            OFFSET 1.59242 -0.163557 -0.172858
            CHANNELS 6 Xposition Yposition Zposition Zrotation Xrotation Yrotation
            JOINT Character1_LeftForeArm
            {
              OFFSET 4.24537 -1.878 -0.32539
              CHANNELS 6 Xposition Yposition Zposition Zrotation Xrotation Yrotation
              JOINT Character1_LeftHand
              {
                OFFSET 2.98616 -1.3058 0.326143
                CHANNELS 6 Xposition Yposition Zposition Zrotation Xrotation Yrotation
                JOINT Character1_LeftHandThumb1
                {
                  OFFSET 0.707167 -0.296378 0.777353
                  CHANNELS 6 Xposition Yposition Zposition Zrotation Xrotation Yrotation
                  JOINT Character1_LeftHandThumb2
                  {
                    OFFSET 0.248522 -0.159515 0.33158
                    CHANNELS 6 Xposition Yposition Zposition Zrotation Xrotation Yrotation
                    JOINT Character1_LeftHandThumb3
                    {
                      OFFSET 0.259195 -0.254061 0.227961
                      CHANNELS 6 Xposition Yposition Zposition Zrotation Xrotation Yrotation
                      JOINT Character1_LeftHandThumb4
                      {
                        OFFSET 0.226666 -0.258213 0.206783
                        CHANNELS 6 Xposition Yposition Zposition Zrotation Xrotation Yrotation
                        End Site
                        {
                          OFFSET 0 0 0
                        }
                      }
                    }
                  }
                }
                JOINT Character1_LeftHandIndex1
                {
                  OFFSET 1.48444 -0.35419 0.611986
                  CHANNELS 6 Xposition Yposition Zposition Zrotation Xrotation Yrotation
                  JOINT Character1_LeftHandIndex2
                  {
                    OFFSET 0.504725 -0.451988 0.0493916
                    CHANNELS 6 Xposition Yposition Zposition Zrotation Xrotation Yrotation
                    JOINT Character1_LeftHandIndex3
                    {
                      OFFSET 0.296443 -0.265513 0.0299121
                      CHANNELS 6 Xposition Yposition Zposition Zrotation Xrotation Yrotation
                      JOINT Character1_LeftHandIndex4
                      {
                        OFFSET 0.197651 -0.217277 0.0208591
                        CHANNELS 6 Xposition Yposition Zposition Zrotation Xrotation Yrotation
                        End Site
                        {
                          OFFSET 0 0 0
                        }
                      }
                    }
                  }
                }
                JOINT Character1_LeftHandMiddle1
                {
                  OFFSET 1.48537 -0.317032 0.21268
                  CHANNELS 6 Xposition Yposition Zposition Zrotation Xrotation Yrotation
                  JOINT Character1_LeftHandMiddle2
                  {
                    OFFSET 0.67206 -0.620936 0.0176343
                    CHANNELS 6 Xposition Yposition Zposition Zrotation Xrotation Yrotation
                    JOINT Character1_LeftHandMiddle3
                    {
                      OFFSET 0.264032 -0.321119 0.00884266
                      CHANNELS 6 Xposition Yposition Zposition Zrotation Xrotation Yrotation
                      JOINT Character1_LeftHandMiddle4
                      {
                        OFFSET 0.180854 -0.241265 0.00658419
                        CHANNELS 6 Xposition Yposition Zposition Zrotation Xrotation Yrotation
                        End Site
                        {
                          OFFSET 0 0 0
                        }
                      }
                    }
                  }
                }
                JOINT Character1_LeftHandRing1
                {
                  OFFSET 1.48599 -0.345215 -0.172738
                  CHANNELS 6 Xposition Yposition Zposition Zrotation Xrotation Yrotation
                  JOINT Character1_LeftHandRing2
                  {
                    OFFSET 0.522197 -0.611355 0.0123874
                    CHANNELS 6 Xposition Yposition Zposition Zrotation Xrotation Yrotation
                    JOINT Character1_LeftHandRing3
                    {
                      OFFSET 0.273491 -0.359549 0.00739157
                      CHANNELS 6 Xposition Yposition Zposition Zrotation Xrotation Yrotation
                      JOINT Character1_LeftHandRing4
                      {
                        OFFSET 0.175076 -0.230164 0.0047308
                        CHANNELS 6 Xposition Yposition Zposition Zrotation Xrotation Yrotation
                        End Site
                        {
                          OFFSET 0 0 0
                        }
                      }
                    }
                  }
                }
                JOINT Character1_LeftHandPinky1
                {
                  OFFSET 1.45006 -0.450851 -0.482264
                  CHANNELS 6 Xposition Yposition Zposition Zrotation Xrotation Yrotation
                  JOINT Character1_LeftHandPinky2
                  {
                    OFFSET 0.289756 -0.353117 -0.0298241
                    CHANNELS 6 Xposition Yposition Zposition Zrotation Xrotation Yrotation
                    JOINT Character1_LeftHandPinky3
                    {
                      OFFSET 0.271226 -0.36969 -0.0280323
                      CHANNELS 6 Xposition Yposition Zposition Zrotation Xrotation Yrotation
                      JOINT Character1_LeftHandPinky4
                      {
                        OFFSET 0.192971 -0.263027 -0.0199442
                        CHANNELS 6 Xposition Yposition Zposition Zrotation Xrotation Yrotation
                        End Site
                        {
                          OFFSET 0 0 0
                        }
                      }
                    }
                  }
                }
              }
            }
          }
        }
        JOINT Character1_RightShoulder
        {
          OFFSET -1.05263 2.25701 0
          CHANNELS 6 Xposition Yposition Zposition Zrotation Xrotation Yrotation
          JOINT Character1_RightArm
          {
            OFFSET -1.59242 -0.163551 -0.172859
            CHANNELS 6 Xposition Yposition Zposition Zrotation Xrotation Yrotation
            JOINT Character1_RightForeArm
            {
              OFFSET -4.24525 -1.87824 -0.325582
              CHANNELS 6 Xposition Yposition Zposition Zrotation Xrotation Yrotation
              JOINT Character1_RightHand
              {
                OFFSET -2.98615 -1.30581 0.326124
                CHANNELS 6 Xposition Yposition Zposition Zrotation Xrotation Yrotation
                JOINT Character1_RightHandThumb1
                {
                  OFFSET -0.707168 -0.296375 0.777353
                  CHANNELS 6 Xposition Yposition Zposition Zrotation Xrotation Yrotation
                  JOINT Character1_RightHandThumb2
                  {
                    OFFSET -0.248522 -0.159517 0.331579
                    CHANNELS 6 Xposition Yposition Zposition Zrotation Xrotation Yrotation
                    JOINT Character1_RightHandThumb3
                    {
                      OFFSET -0.259195 -0.254063 0.227961
                      CHANNELS 6 Xposition Yposition Zposition Zrotation Xrotation Yrotation
                      JOINT Character1_RightHandThumb4
                      {
                        OFFSET -0.226667 -0.258211 0.206782
                        CHANNELS 6 Xposition Yposition Zposition Zrotation Xrotation Yrotation
                        End Site
                        {
                          OFFSET 0 0 0
                        }
                      }
                    }
                  }
                }
                JOINT Character1_RightHandIndex1
                {
                  OFFSET -1.48444 -0.354191 0.611987
                  CHANNELS 6 Xposition Yposition Zposition Zrotation Xrotation Yrotation
                  JOINT Character1_RightHandIndex2
                  {
                    OFFSET -0.504724 -0.451986 0.0493909
                    CHANNELS 6 Xposition Yposition Zposition Zrotation Xrotation Yrotation
                    JOINT Character1_RightHandIndex3
                    {
                      OFFSET -0.296442 -0.265512 0.0299124
                      CHANNELS 6 Xposition Yposition Zposition Zrotation Xrotation Yrotation
                      JOINT Character1_RightHandIndex4
                      {
                        OFFSET -0.197651 -0.217279 0.0208598
                        CHANNELS 6 Xposition Yposition Zposition Zrotation Xrotation Yrotation
                        End Site
                        {
                          OFFSET 0 0 0
                        }
                      }
                    }
                  }
                }
                JOINT Character1_RightHandMiddle1
                {
                  OFFSET -1.48537 -0.317029 0.212679
                  CHANNELS 6 Xposition Yposition Zposition Zrotation Xrotation Yrotation
                  JOINT Character1_RightHandMiddle2
                  {
                    OFFSET -0.672061 -0.620937 0.0176348
                    CHANNELS 6 Xposition Yposition Zposition Zrotation Xrotation Yrotation
                    JOINT Character1_RightHandMiddle3
                    {
                      OFFSET -0.264032 -0.32112 0.0088428
                      CHANNELS 6 Xposition Yposition Zposition Zrotation Xrotation Yrotation
                      JOINT Character1_RightHandMiddle4
                      {
                        OFFSET -0.180854 -0.241264 0.00658403
                        CHANNELS 6 Xposition Yposition Zposition Zrotation Xrotation Yrotation
                        End Site
                        {
                          OFFSET 0 0 0
                        }
                      }
                    }
                  }
                }
                JOINT Character1_RightHandRing1
                {
                  OFFSET -1.48599 -0.345214 -0.172738
                  CHANNELS 6 Xposition Yposition Zposition Zrotation Xrotation Yrotation
                  JOINT Character1_RightHandRing2
                  {
                    OFFSET -0.522199 -0.611355 0.0123873
                    CHANNELS 6 Xposition Yposition Zposition Zrotation Xrotation Yrotation
                    JOINT Character1_RightHandRing3
                    {
                      OFFSET -0.273489 -0.359549 0.00739125
                      CHANNELS 6 Xposition Yposition Zposition Zrotation Xrotation Yrotation
                      JOINT Character1_RightHandRing4
                      {
                        OFFSET -0.175076 -0.230165 0.0047312
                        CHANNELS 6 Xposition Yposition Zposition Zrotation Xrotation Yrotation
                        End Site
                        {
                          OFFSET 0 0 0
                        }
                      }
                    }
                  }
                }
                JOINT Character1_RightHandPinky1
                {
                  OFFSET -1.45006 -0.450851 -0.482263
                  CHANNELS 6 Xposition Yposition Zposition Zrotation Xrotation Yrotation
                  JOINT Character1_RightHandPinky2
                  {
                    OFFSET -0.289757 -0.353119 -0.0298237
                    CHANNELS 6 Xposition Yposition Zposition Zrotation Xrotation Yrotation
                    JOINT Character1_RightHandPinky3
                    {
                      OFFSET -0.271225 -0.36969 -0.0280317
                      CHANNELS 6 Xposition Yposition Zposition Zrotation Xrotation Yrotation
                      JOINT Character1_RightHandPinky4
                      {
                        OFFSET -0.192971 -0.263025 -0.0199442
                        CHANNELS 6 Xposition Yposition Zposition Zrotation Xrotation Yrotation
                        End Site
                        {
                          OFFSET 0 0 0
                        }
                      }
                    }
                  }
                }
              }
            }
          }
        }
        JOINT Character1_Neck
        {
          OFFSET 0 2.01813 0
          CHANNELS 6 Xposition Yposition Zposition Zrotation Xrotation Yrotation
          JOINT Character1_Head
          {
            OFFSET 0 3.0075 0
            CHANNELS 6 Xposition Yposition Zposition Zrotation Xrotation Yrotation
            End Site
            {
              OFFSET 0 0 0
            }
          }
        }
      }
    }
  }
}
MOTION
Frames:	2
Frame Time:	0.0166667
0.212802 14.2648 0.0860002 -5.56087 3.36071 -4.916 1.33984 -0.942852 -1.32862e-007 -1.26213 10.3418 3.60256 1.03111 -5.48941 0.514162 10.5698 55.8825 3.55936 0.584472 -7.37543 -1.61389 0.303558 3.95638 0.234932 0.308452 -0.815752 3.43202 -3.30338e-005 -8.75569e-005 1.12476e-005 -1.33984 -0.942852 2.0257e-007 5.99831 -39.0363 9.00049 -1.03111 -5.48941 0.514162 6.5204 26.8215 -4.65225 -0.584473 -7.37543 -1.61389 1.41527 16.4887 -1.77584 -0.308452 -0.815753 3.43203 -4.8665e-013 5.17943e-005 4.25896e-014 -2.17807e-008 1.05261 -8.18071e-008 4.13111 2.75873 6.45314 6.50071e-009 2.01813 -2.32536e-008 -0.676627 9.47412 2.54871 -2.51716e-008 2.01813 3.074e-008 -0.286697 9.48855 2.4924 1.05262 2.25701 -9.23729e-007 -0.55704 -0.0662738 -0.0598332 1.59242 -0.163556 -0.172858 -38.2766 3.18708 -42.1485 4.2453 -1.87814 -0.325505 -17.5565 -26.5162 -65.8336 2.98614 -1.30584 0.326136 -0.399588 -5.01753 2.1793 0.707167 -0.296377 0.777354 0.000137531 2.93487e-005 -5.88467e-006 0.248522 -0.159516 0.331579 -0.000133174 -6.4531e-005 -6.49461e-005 0.259195 -0.25406 0.227962 -7.2136e-005 8.51938e-006 9.53831e-006 0.226667 -0.258213 0.206782 -6.63661e-005 8.52286e-005 5.50239e-005 1.48444 -0.354189 0.611987 0.000137531 2.93487e-005 -5.88467e-006 0.504725 -0.451988 0.0493912 -0.000133174 -6.4531e-005 -6.49461e-005 0.296442 -0.265513 0.0299123 -7.2136e-005 8.51938e-006 9.53831e-006 0.197651 -0.217278 0.0208591 -6.63661e-005 8.52286e-005 5.50239e-005 1.48537 -0.317032 0.212679 0.000137531 2.93487e-005 -5.88467e-006 0.672059 -0.620935 0.0176341 -0.000133174 -6.4531e-005 -6.49461e-005 0.264032 -0.321119 0.00884215 -7.2136e-005 8.51938e-006 9.53831e-006 0.180854 -0.241264 0.00658408 -6.63661e-005 8.52286e-005 5.50239e-005 1.48599 -0.345215 -0.172738 0.000137531 2.93487e-005 -5.88467e-006 0.522197 -0.611354 0.0123866 -0.000133174 -6.4531e-005 -6.49461e-005 0.273492 -0.359549 0.00739106 -7.2136e-005 8.51938e-006 9.53831e-006 0.175075 -0.230163 0.00473165 -6.63661e-005 8.52286e-005 5.50239e-005 1.45006 -0.450851 -0.482263 0.000137531 2.93487e-005 -5.88467e-006 0.289756 -0.353117 -0.0298244 -0.000133174 -6.4531e-005 -6.49461e-005 0.271226 -0.36969 -0.0280327 -7.2136e-005 8.51938e-006 9.53831e-006 0.192972 -0.263027 -0.0199442 -6.63661e-005 8.52286e-005 5.50239e-005 -1.05263 2.25701 -4.26203e-007 -7.76355e-008 1.69614e-005 4.40004e-006 -1.59242 -0.163551 -0.172859 49.6961 11.6373 -43.8234 -4.24524 -1.87826 -0.325567 7.92266 4.2788 51.0563 -2.98613 -1.30586 0.326135 0.342469 -4.38578 -1.9068 -0.707168 -0.296375 0.777353 -5.73434e-005 7.44934e-006 -3.47914e-005 -0.248522 -0.159517 0.33158 9.34482e-005 -5.43708e-006 -6.2995e-006 -0.259195 -0.254063 0.227961 -0.000200659 2.17883e-005 -9.97768e-006 -0.226668 -0.258211 0.206783 -8.22752e-005 -3.19351e-005 2.29471e-005 -1.48444 -0.35419 0.611987 -5.73434e-005 7.44934e-006 -3.47914e-005 -0.504725 -0.451987 0.0493909 9.34482e-005 -5.43708e-006 -6.2995e-006 -0.296442 -0.265512 0.0299123 -0.000200659 2.17883e-005 -9.97768e-006 -0.197651 -0.217279 0.0208598 -8.22752e-005 -3.19351e-005 2.29471e-005 -1.48537 -0.31703 0.21268 -5.73434e-005 7.44934e-006 -3.47914e-005 -0.672061 -0.620937 0.0176348 9.34482e-005 -5.43708e-006 -6.2995e-006 -0.264031 -0.32112 0.00884278 -0.000200659 2.17883e-005 -9.97768e-006 -0.180854 -0.241264 0.0065839 -8.22752e-005 -3.19351e-005 2.29471e-005 -1.48599 -0.345215 -0.172737 -5.73434e-005 7.44934e-006 -3.47914e-005 -0.522198 -0.611355 0.0123873 9.34482e-005 -5.43708e-006 -6.2995e-006 -0.27349 -0.359549 0.00739172 -0.000200659 2.17883e-005 -9.97768e-006 -0.175076 -0.230165 0.00473122 -8.22752e-005 -3.19351e-005 2.29471e-005 -1.45006 -0.450851 -0.482262 -5.73434e-005 7.44934e-006 -3.47914e-005 -0.289757 -0.353119 -0.0298237 9.34482e-005 -5.43708e-006 -6.2995e-006 -0.271225 -0.36969 -0.0280323 -0.000200659 2.17883e-005 -9.97768e-006 -0.192972 -0.263025 -0.0199439 -8.22752e-005 -3.19351e-005 2.29471e-005 -6.0169e-008 2.01813 2.3381e-007 -3.46497 -9.07455 4.10792 1.70403e-007 3.00749 -1.8922e-007 -2.64582 -9.34403 4.16689 
0.20722 14.265 0.0837192 -5.25865 3.30045 -4.77224 1.33984 -0.942851 -1.32934e-007 -0.97828 9.86971 3.5408 1.03111 -5.48941 0.514162 9.93156 56.3213 3.89963 0.584473 -7.37543 -1.6139 0.752752 1.23488 -0.074738 0.308452 -0.815751 3.43202 -3.30497e-005 -8.56849e-005 1.12466e-005 -1.33984 -0.942852 1.99707e-007 5.54393 -38.8747 8.75416 -1.03111 -5.48942 0.514162 6.70294 28.4634 -4.77759 -0.584473 -7.37543 -1.61389 1.29902 15.64 -1.66131 -0.308452 -0.815753 3.43202 -4.96614e-013 5.347e-005 7.20594e-015 -5.58994e-008 1.05261 -1.89139e-007 3.85935 2.7479 6.24987 6.44578e-009 2.01813 -2.29768e-008 -0.654052 9.47352 2.46375 -2.52746e-008 2.01813 3.46827e-008 -0.277107 9.48718 2.40931 1.05262 2.25701 -3.71035e-008 -0.55704 -0.0662738 -0.0598332 1.59242 -0.163555 -0.172858 -38.0941 3.55622 -39.0652 4.24535 -1.87803 -0.325522 -17.2896 -25.7508 -64.8744 2.98614 -1.30584 0.326137 -0.380877 -4.76443 2.07033 0.707166 -0.296378 0.777351 0.00013118 4.98712e-005 -5.85949e-006 0.248522 -0.159515 0.331581 -0.000133175 -6.14614e-005 -6.19801e-005 0.259194 -0.25406 0.227961 -7.22953e-005 5.28913e-006 9.55062e-006 0.226667 -0.258213 0.206782 -6.5838e-005 8.8944e-005 5.34357e-005 1.48444 -0.354188 0.611987 0.00013118 4.98712e-005 -5.85949e-006 0.504725 -0.451988 0.0493909 -0.000133175 -6.14614e-005 -6.19801e-005 0.296442 -0.265513 0.0299124 -7.22953e-005 5.28913e-006 9.55062e-006 0.197651 -0.217278 0.0208598 -6.5838e-005 8.8944e-005 5.34357e-005 1.48537 -0.317032 0.212679 0.00013118 4.98712e-005 -5.85949e-006 0.672059 -0.620935 0.0176349 -0.000133175 -6.14614e-005 -6.19801e-005 0.264033 -0.321119 0.00884208 -7.22953e-005 5.28913e-006 9.55062e-006 0.180854 -0.241265 0.00658409 -6.5838e-005 8.8944e-005 5.34357e-005 1.48599 -0.345215 -0.172738 0.00013118 4.98712e-005 -5.85949e-006 0.522197 -0.611354 0.0123871 -0.000133175 -6.14614e-005 -6.19801e-005 0.273491 -0.359549 0.00739149 -7.22953e-005 5.28913e-006 9.55062e-006 0.175076 -0.230164 0.00473118 -6.5838e-005 8.8944e-005 5.34357e-005 1.45006 -0.450851 -0.482264 0.00013118 4.98712e-005 -5.85949e-006 0.289756 -0.353116 -0.0298233 -0.000133175 -6.14614e-005 -6.19801e-005 0.271226 -0.36969 -0.0280327 -7.22953e-005 5.28913e-006 9.55062e-006 0.192971 -0.263027 -0.0199442 -6.5838e-005 8.8944e-005 5.34357e-005 -1.05262 2.257 -4.26495e-007 -7.31559e-008 1.69861e-005 4.37583e-006 -1.59242 -0.16355 -0.172859 48.7112 11.7484 -40.8283 -4.24524 -1.87826 -0.325574 8.04757 2.65143 52.5957 -2.98614 -1.30585 0.326124 0.343313 -4.39861 -1.91287 -0.707169 -0.296375 0.777354 -5.85167e-005 7.04846e-006 -3.50875e-005 -0.248522 -0.159517 0.331579 9.55274e-005 -5.44928e-006 -6.87154e-006 -0.259195 -0.254063 0.227961 -0.000201612 2.21011e-005 -9.59314e-006 -0.226668 -0.258211 0.206783 -9.15065e-005 -3.31172e-005 2.29471e-005 -1.48445 -0.35419 0.611987 -5.85167e-005 7.04846e-006 -3.50875e-005 -0.504725 -0.451987 0.0493909 9.55274e-005 -5.44928e-006 -6.87154e-006 -0.296442 -0.265513 0.0299123 -0.000201612 2.21011e-005 -9.59314e-006 -0.197651 -0.217279 0.0208599 -9.15065e-005 -3.31172e-005 2.29471e-005 -1.48537 -0.317029 0.212679 -5.85167e-005 7.04846e-006 -3.50875e-005 -0.67206 -0.620937 0.0176348 9.55274e-005 -5.44928e-006 -6.87154e-006 -0.264032 -0.321119 0.00884278 -0.000201612 2.21011e-005 -9.59314e-006 -0.180854 -0.241264 0.00658392 -9.15065e-005 -3.31172e-005 2.29471e-005 -1.48599 -0.345214 -0.172738 -5.85167e-005 7.04846e-006 -3.50875e-005 -0.522198 -0.611355 0.0123873 9.55274e-005 -5.44928e-006 -6.87154e-006 -0.273489 -0.359549 0.00739125 -0.000201612 2.21011e-005 -9.59314e-006 -0.175077 -0.230166 0.00473157 -9.15065e-005 -3.31172e-005 2.29471e-005 -1.45007 -0.450851 -0.482263 -5.85167e-005 7.04846e-006 -3.50875e-005 -0.289757 -0.353119 -0.0298237 9.55274e-005 -5.44928e-006 -6.87154e-006 -0.271225 -0.36969 -0.0280316 -0.000201612 2.21011e-005 -9.59314e-006 -0.192971 -0.263025 -0.0199445 -9.15065e-005 -3.31172e-005 2.29471e-005 -6.08124e-008 2.01813 2.9636e-007 -3.34947 -9.07206 3.97099 1.70272e-007 3.0075 -2.28502e-007 -2.5579 -9.33344 4.02815 
